<svg width="580" height="400" xmlns="http://www.w3.org/2000/svg">
 <!-- Created with Method Draw - http://github.com/duopixel/Method-Draw/ -->
 <g>
  <title>background</title>
  <rect fill="#fff" id="canvas_background" height="402" width="582" y="-1" x="-1"/>
  <g display="none" overflow="visible" y="0" x="0" height="100%" width="100%" id="canvasGrid">
   <rect fill="url(#gridpattern)" stroke-width="0" y="0" x="0" height="100%" width="100%"/>
  </g>
 </g>
 <g>
  <title>Layer 1</title>
  <path d="m210.5,61c0,2 -0.090408,7.982201 -3,23c-6.192657,31.96328 -12.32547,62.934677 -21,107c-7.2733,36.94725 -11.710175,68.05072 -15,86c-3.677032,20.06189 -8.47345,40.870026 -11,51c-1.233963,4.947449 -3.493454,9.878571 -4,13c-0.160187,0.987091 0.707108,1.292908 0,2c-0.707108,0.707092 -0.615417,-0.211792 0,-1c2.537415,-3.249847 12.58696,-5.436462 41,-9c25.816971,-3.237946 60.025421,-2.578186 109,-1c31.04834,1.000519 65.987061,5.499939 95,6c14.997772,0.258514 32,0 43,-4c11,-4 17.924835,-7.284729 25,-9c4.955475,-1.201385 7,-2 7,-2c0,-3 -2.098267,-14.973419 -8,-37c-5.084778,-18.977478 -12.092621,-45.981659 -17,-71c-5.096252,-25.981308 -9,-45 -12,-61c-3,-16 -6.049469,-34.994644 -7,-44c-1.054932,-9.994354 -2.498291,-19.937965 -3,-26c-0.577362,-6.976151 -1,-11 -1,-14c0,-2 -1,-3 -1,-4c0,0 -0.292908,-0.292892 -1,-1c-1.414215,-1.414215 -1.2565,-3.796997 -2,-5c-1.662506,-2.689995 -1.692535,-4.186008 -3,-6c-0.826904,-1.14727 -1,-2 -2,-3c0,0 0.707092,-0.292892 0,-1c-0.707092,-0.707108 -1,0 -1,0c-1,-1 -2.948822,-1.303196 -8,-2c-12.916077,-1.781761 -22.971191,-2.49963 -36,-3c-14.988953,-0.575649 -29,-1 -47,-1c-12,0 -21,0 -28,0c-11,0 -17.98877,1.06982 -24,2c-6.987915,1.08131 -11.907776,1.496227 -16,2c-3.970032,0.488731 -6.823746,0.486256 -9,1c-1.946503,0.459507 -3.228363,-1.148048 -6,0c-1.306564,0.541195 -2.693436,1.458805 -4,2c-0.923874,0.382683 -4,1 -5,1c-2,0 -2,1 -3,1c-1,0 -2,0 -2,0c-1,0 -2,0 -2,0c0,0 -1,0 -1,0c-1,0 -1,0 -2,0c0,0 -1,0 -1,0c-2,0 -3,1 -4,1c-1,0 -2,0 -2,0c-1,0 -1,0 -2,0c0,0 -1,0 -1,0c-1,1 -1,1 -2,1c0,0 0,0 0,1c0,0 0,0 0,0c0,0 0,1 0,1c0,0 0,0 0,0c0,0 -1,0 -1,0c0,0 0,0 -1,0c0,0 0,-1 0,-1c0,0 -1,0 -1,1c0,0 0,0 0,0c0,1 0,1 0,1c0,0 0,1 0,1c0,0 0,0 0,1c0,0 0,0 0,0l0,1l0,0l0,0" id="svg_1" stroke-width="1.5" stroke="#000" fill="none"/>
  <path d="m227.5,76c0,0 2.761078,0.415894 6,2c2.840729,1.389351 7.21167,2.714119 10,5c3.281006,2.689789 5.812653,5.20681 8,7c2.78833,2.285881 4.761078,5.415894 8,7c2.840729,1.389351 4.852722,3.173096 6,4c1.813995,1.307449 3,2 3,2c1,0 1,0 2,0c0,0 1.012909,0.839821 2,1c3.121429,0.506538 5.805664,1.44841 10,3c3.867004,1.430496 7,3 9,4c2,1 2,1 3,2c0,0 0,0 1,0c0,0 0,0 0,0c0,1 0.292908,1.292892 1,2c0.707092,0.707108 1.292908,0.292892 2,1c0.707092,0.707108 0,1 0,1l0,1" id="svg_2" stroke-width="1.5" stroke="#000" fill="none"/>
  <path d="m331.5,111c1,0 2.128723,-0.130646 5,-1c3.450836,-1.04483 9,-5 16,-9c7,-4 11.776367,-6.408943 17,-9c4.82428,-2.392967 8,-4 11,-6c3,-2 4.705475,-3.346191 7,-5c1.813995,-1.307449 3.386871,-2.91761 6,-4c0.923889,-0.382683 1.693451,-1.458801 3,-2c0.923889,-0.382683 1.292908,-0.292892 2,-1c0.707092,-0.707108 1,-1 1,-1l0,0l0,0l1,0" id="svg_3" fill-opacity="null" stroke-opacity="null" stroke-width="1.5" stroke="#000" fill="none"/>
  <path d="m253.5,161c-1,0 -1,0 -2,0c-2,0 -4.056641,-0.917526 -7,-3c-4.081696,-2.887863 -7,-6 -10,-9c-2,-2 -2.458801,-2.693436 -3,-4c-0.38269,-0.923874 0,-2 0,-3c0,-1 0,-2 0,-3c0,-1 -0.919006,-3.10701 0,-7c0.513748,-2.176254 1.458801,-4.693436 2,-6c0.38269,-0.923882 0.292892,-1.292892 1,-2c0.707108,-0.707108 0.292892,-0.292892 1,-1c0.707108,-0.707108 1.012909,-0.839821 2,-1c3.121445,-0.506538 4.823746,-1.486259 7,-2c1.946503,-0.459503 3,0 6,0c2,0 5,0 8,0c3,0 6,0 10,0c2,0 4.152252,-0.765366 6,0c1.306549,0.541199 1.076111,0.617317 2,1c1.306549,0.541199 1.292908,0.292892 2,1c0.707092,0.707108 0,1 1,2c0,0 0,1 1,2c0,0 0.61731,1.076118 1,2c0.541199,1.306564 1,2 2,3c1,1 1,2 2,3c0,0 0,1 0,2c0,1 0,1 0,2c0,1 0,2 0,3c0,1 -1,2 -1,2c-1,2 -2,3 -3,4c-1,1 -2.076111,2.61731 -3,3c-1.306549,0.541199 -1,1 -2,2c-1,1 -2.292908,0.292892 -3,1c-0.707092,0.707108 -1.076111,0.61731 -2,1c-1.306549,0.541199 -2,1 -3,1c0,0 -1,0 -2,0c-1,0 -1,1 -2,1c-1,0 -1,0 -1,0c0,0 -1,0 -1,1c0,0 -1,0 -1,1c0,0 -1,0 -1,0c0,1 0,1 -1,1c0,0 0,0 -1,0c0,0 0,0 0,0c-1,0 -1,0 -1,0c0,0 -1,0 -1,0c0,0 0,0 -1,0c0,0 0,0 0,0c0,0 -1,0 -1,0c0,0 0,0 -1,0c0,0 0,0 0,0c0,0 -1,0 -1,0l0,0l0,0" id="svg_4" fill-opacity="null" stroke-opacity="null" stroke-width="1.5" stroke="#000" fill="none"/>
  <path d="m373.5,137c0,0 -0.076111,0.38269 -1,0c-1.306549,-0.541199 -1.823761,-1.486252 -4,-2c-0.973236,-0.229752 -2.186005,-0.692551 -4,-2c-1.147278,-0.826904 -1.61731,-2.076126 -2,-3c-0.541199,-1.306564 -1,-1 -1,-2c0,0 0,0 0,-1c0,0 0,0 0,-1c0,0 0,0 0,0c0,-1 1.076111,-1.617317 2,-2c1.306549,-0.541199 2.076111,-2.617317 3,-3c1.306549,-0.541199 1.705475,-2.346191 4,-4c1.813995,-1.307449 4,-2 5,-3c1,-1 2.824432,-0.097885 4,-2c0.525726,-0.850655 1,-1 2,-1c1,0 1,0 2,0c1,0 3,0 4,0c2,0 4.934143,0.144295 7,1c2.92157,1.210152 5.06601,1.877655 7,3c3.118469,1.809723 3.558197,2.519287 7,5c1.813995,1.307449 4.21167,2.714119 7,5c3.281006,2.689789 5.458801,4.693436 6,6c0.38269,0.923874 1,2 1,2c0,0 0,1 0,1c0,0 -1.076111,0.61731 -2,1c-1.306549,0.541199 -3.07843,1.789856 -6,3c-4.131714,1.711411 -6.309998,3.337494 -9,5c-1.203003,0.7435 -2.693451,1.458801 -4,2c-1.847748,0.765366 -5,1 -6,1c-2,0 -3,0 -5,0c-1,0 -3,0 -4,0c-1,0 -2,0 -3,0c0,0 -0.693451,-1.458801 -2,-2c-0.923889,-0.38269 -1,0 -2,-1c0,0 -1,0 -1,-1c0,0 -1,0 -1,0c0,-1 -1,-1 -1,-1c0,0 -1,-1 -1,-1c0,0 0,-1 0,-1c-1,-1 -1,-2 -1,-2c-1,-1 -1,-1 -1,-1c0,0 0,-1 -1,-1c0,0 0,0 0,0c-1,0 -1,0 -1,0c0,0 -1,0 -1,0l0,1" id="svg_5" fill-opacity="null" stroke-opacity="null" stroke-width="1.5" stroke="#000" fill="none"/>
  <path d="m319.5,151c0,2 -0.110504,3.162277 -2,11c-2.743134,11.378708 -6.095856,19.979233 -8,29c-1.053131,4.989075 -1.540497,9.053497 -2,11c-0.513733,2.176254 -1.496216,3.907791 -2,8c-0.366547,2.977524 -1,6 -1,8c0,1 -1,2 -1,3l0,0l0,0" id="svg_6" fill-opacity="null" stroke-opacity="null" stroke-width="1.5" stroke="#000" fill="none"/>
  <path d="m231.5,246c0,0 1,0 4,0c3,0 11,0 20,0c12,0 24.035156,-0.432922 39,1c8.025543,0.768463 13,1 20,1c5,0 11.072174,0.756424 15,0c5.287994,-1.018372 9.19577,-3.648865 13,-6c4.253265,-2.628662 8.404022,-5.41156 13,-9c4.458771,-3.481293 6.718994,-6.310211 10,-9c2.78833,-2.285873 4.918304,-4.112137 9,-7c2.943359,-2.082474 6.07843,-3.789856 9,-5c2.065857,-0.855713 3.693451,-2.458801 5,-3c0.923889,-0.38269 2,-1 3,-1c0,0 1,0 1,0c1,0 1,0 1,0l1,0l0,0" id="svg_7" fill-opacity="null" stroke-opacity="null" stroke-width="1.5" stroke="#000" fill="none"/>
  <path d="m250.5,252c0,0 0.096603,1.016907 -1,7c-0.91925,5.015472 -1.497559,8.925781 -2,14c-0.197083,1.990265 0,3 0,4c0,0 -0.964478,2.504242 2,7c1.557022,2.361298 3.70546,5.346191 6,7c5.441986,3.922363 9.861938,5.475464 16,7c5.903381,1.466248 13,3 18,4c5,1 10.013641,1.670074 14,2c6.062042,0.501709 12,2 20,2c7,0 12.140533,0.438782 19,-2c7.175751,-2.551208 12,-5 18,-9c6,-4 10.252014,-7.64563 16,-12c7.348938,-5.567169 11,-10 15,-14c3,-3 5.714111,-7.21167 8,-10c1.793182,-2.187347 2.692535,-5.186005 4,-7c1.653809,-2.29454 2.234619,-4.152237 3,-6c0.541199,-1.306564 1.458801,-1.693436 2,-3c0.38269,-0.923874 0,-1 0,-2c0,0 0,0 0,0c0,-1 0,-2 -1,-3c-1,-1 -1.186005,-0.692551 -3,-2c-1.147278,-0.826904 -2.076111,-1.61731 -3,-2c-1.306549,-0.541199 -2,-2 -3,-2c-1,0 -1,-1 -1,-1c-1,0 -1,-1 -1,-1c-1,0 -1,-1 -1,-1c-1,0 -1.292908,-0.292892 -2,-1c-0.707092,-0.707108 -1,-2 -1,-2c0,-1 -0.292908,-0.292892 -1,-1c-0.707092,-0.707108 0,-1 0,-1l0,0l0,-1l0,0" id="svg_8" fill-opacity="null" stroke-opacity="null" stroke-width="1.5" stroke="#000" fill="none"/>
  <path d="m310.5,314c-1,0 -0.294525,0.346191 2,2c3.627991,2.614899 7.07843,4.789856 10,6c2.065857,0.855713 2.693451,1.458801 4,2c0.923889,0.38269 2,0 3,0c2,0 4,0 5,0c1,0 2,0 3,-1c1,-1 2.693451,-2.458801 4,-3c1.847748,-0.765381 2.852722,-2.173096 4,-3c1.813995,-1.307465 3.186005,-2.692535 5,-4c1.147278,-0.826904 1.458801,-0.693451 2,-2c0.38269,-0.923889 1,-1 1,-1c0,-1 0,-1 0,-1c0,0 0,-1 0,-1c0,0 0,0 0,-1l0,0l0,0" id="svg_9" fill-opacity="null" stroke-opacity="null" stroke-width="1.5" stroke="#000" fill="none"/>
 </g>
</svg>